<?xml version="1.0" standalone="no"?>
<!DOCTYPE svg PUBLIC "-//W3C//DTD SVG 20010904//EN"
 "http://www.w3.org/TR/2001/REC-SVG-20010904/DTD/svg10.dtd">
<svg version="1.0" xmlns="http://www.w3.org/2000/svg"
 width="662.000000pt" height="662.000000pt" viewBox="0 0 662.000000 662.000000"
 preserveAspectRatio="xMidYMid meet">
<metadata>
Created by potrace 1.16, written by Peter Selinger 2001-2019
</metadata>
<g transform="translate(0.000000,662.000000) scale(0.100000,-0.100000)"
fill="#000000" stroke="none">
<path d="M2 3313 l3 -3308 3305 0 3305 0 3 3308 2 3307 -3310 0 -3310 0 2
-3307z m5778 38 c0 -1342 -3 -2447 -6 -2455 -6 -14 -245 -16 -2455 -16 l-2449
0 0 2450 0 2450 2453 3 c1348 1 2453 3 2454 5 2 1 3 -1096 3 -2437z m-1360
-2897 c25 -75 47 -124 53 -121 7 2 30 57 53 123 38 109 43 119 67 122 l27 3 0
-155 c0 -149 -1 -156 -20 -156 -19 0 -20 7 -20 100 0 80 -3 100 -14 100 -10 0
-26 -35 -47 -100 -26 -77 -37 -100 -51 -100 -10 0 -18 4 -18 9 0 5 -5 22 -12
38 -6 15 -12 33 -13 38 -12 55 -41 125 -52 125 -10 0 -13 -25 -13 -105 0 -98
-1 -105 -20 -105 -19 0 -20 7 -20 155 l0 155 29 0 c29 0 30 -3 71 -126z m500
111 c0 -12 -17 -15 -90 -15 l-90 0 0 -50 0 -50 85 0 c69 0 85 -3 85 -15 0 -12
-16 -15 -85 -15 l-85 0 0 -60 0 -61 89 2 c49 1 94 -2 100 -5 28 -18 -9 -26
-115 -26 l-114 0 0 155 0 155 110 0 c91 0 110 -3 110 -15z m250 -10 c71 -64
70 -202 -3 -256 -26 -20 -46 -25 -114 -27 l-83 -4 0 157 0 157 89 -4 c72 -2
93 -7 111 -23z m379 -2 c7 -16 13 -30 14 -33 0 -3 22 -59 49 -124 26 -66 48
-121 48 -123 0 -2 -8 -3 -18 -3 -12 0 -23 16 -35 50 l-18 51 -72 -3 -71 -3
-16 -47 c-10 -33 -20 -48 -32 -48 -10 0 -18 1 -18 3 0 1 25 65 55 142 30 77
55 145 55 152 0 26 46 14 59 -14z"/>
<path d="M980 3335 l0 -2345 2345 0 2345 0 0 2345 0 2345 -2345 0 -2345 0 0
-2345z m1445 480 c189 -50 339 -208 380 -400 8 -38 15 -88 15 -110 0 -130 -62
-276 -156 -370 -104 -104 -226 -155 -374 -155 -148 0 -271 51 -377 156 -282
282 -149 774 238 878 72 19 201 20 274 1z m1224 -18 c113 -40 209 -122 246
-211 29 -69 24 -76 -55 -76 -69 0 -71 1 -135 51 -72 56 -138 78 -238 79 -65 0
-147 -17 -147 -32 0 -5 6 -21 14 -36 30 -59 29 -67 -12 -85 -43 -19 -73 -55
-91 -108 -23 -70 16 -144 107 -206 32 -21 72 -50 90 -65 18 -16 45 -28 60 -28
22 0 30 -8 44 -40 l16 -39 -26 -3 c-16 -2 -28 -10 -30 -20 -8 -40 104 -12 189
47 40 27 55 33 69 25 27 -15 66 -12 84 5 8 8 31 15 51 15 35 0 37 -1 31 -27
-4 -16 -24 -52 -44 -82 -61 -91 -168 -151 -326 -186 -23 -5 -27 -10 -23 -30 6
-33 -8 -31 -45 5 -23 24 -38 30 -72 30 -155 0 -350 131 -424 284 -87 178 -78
377 24 527 38 57 40 64 19 73 -8 3 -15 11 -15 17 0 9 3 9 14 0 17 -15 39 -6
101 40 113 84 207 111 357 104 68 -3 119 -12 167 -28z m1676 6 c97 -33 161
-123 179 -250 l6 -43 -85 0 c-84 0 -85 0 -85 25 0 43 -27 94 -62 115 -40 24
-107 26 -148 5 -75 -39 -87 -174 -18 -219 12 -8 70 -31 128 -51 124 -44 178
-73 221 -122 46 -53 59 -93 59 -181 0 -115 -21 -174 -84 -237 -70 -71 -125
-89 -254 -83 -80 3 -106 9 -148 30 -96 50 -153 142 -162 260 l-5 68 86 0 c78
0 85 -2 80 -19 -7 -29 15 -97 44 -132 49 -58 135 -76 203 -41 45 22 70 72 70
141 0 48 -3 57 -37 91 -31 30 -59 44 -150 73 -62 20 -131 48 -153 62 -112 71
-149 224 -88 368 26 59 96 123 157 141 64 20 187 20 246 -1z m-1093 -385 c3
-360 4 -385 23 -415 25 -43 70 -63 140 -63 70 0 107 19 131 67 17 35 19 70 22
416 l3 377 85 0 85 0 -3 -377 c-4 -357 -5 -382 -26 -443 -26 -80 -77 -142
-146 -178 -46 -24 -61 -27 -156 -27 -90 1 -112 4 -153 24 -67 33 -122 100
-149 180 -21 62 -22 86 -26 444 l-3 377 85 0 85 0 3 -382z m-2562 292 l0 -80
-180 0 -180 0 0 -110 0 -110 180 0 180 0 0 -80 0 -80 -177 -2 -178 -3 -3 -232
-2 -233 -80 0 -80 0 0 505 0 505 260 0 260 0 0 -80z"/>
<path d="M2235 3659 c-53 -7 -135 -38 -135 -51 0 -5 -6 -8 -14 -8 -22 0 -107
-115 -123 -168 -14 -45 -19 -171 -9 -222 10 -45 60 -134 98 -172 122 -122 334
-124 464 -5 82 75 116 155 116 273 0 83 -9 119 -45 183 -75 132 -198 192 -352
170z"/>
<path d="M5018 544 c-5 -4 -8 -58 -8 -121 l0 -113 59 0 c86 0 104 18 109 107
4 62 1 72 -19 96 -19 21 -36 28 -79 33 -30 3 -58 3 -62 -2z"/>
</g>
</svg>
